<mxfile host="app.diagrams.net" modified="2021-09-03T17:29:17.248Z" agent="5.0 (Windows NT 10.0; Win64; x64) AppleWebKit/537.36 (KHTML, like Gecko) Chrome/92.0.4515.159 Safari/537.36 Edg/92.0.902.84" etag="W-5Ef9Cpebx0RR0EI1_W" version="14.6.6" type="github">
  <diagram id="Xhpv-3tDheR5Zm_qJ-oF" name="Page-1">
    <mxGraphModel dx="870" dy="594" grid="1" gridSize="10" guides="1" tooltips="1" connect="1" arrows="1" fold="1" page="1" pageScale="1" pageWidth="850" pageHeight="1100" math="0" shadow="0">
      <root>
        <mxCell id="0" />
        <mxCell id="1" parent="0" />
        <mxCell id="l5qrBLK7dBV3Jlsl8NIk-1" value="" style="rounded=0;whiteSpace=wrap;html=1;" vertex="1" parent="1">
          <mxGeometry x="240" y="50" width="380" height="460" as="geometry" />
        </mxCell>
        <mxCell id="l5qrBLK7dBV3Jlsl8NIk-2" value="Video" style="text;html=1;strokeColor=none;fillColor=none;align=center;verticalAlign=middle;whiteSpace=wrap;rounded=0;" vertex="1" parent="1">
          <mxGeometry x="340" y="70" width="170" height="20" as="geometry" />
        </mxCell>
        <mxCell id="l5qrBLK7dBV3Jlsl8NIk-4" value="" style="shape=link;html=1;exitX=0.007;exitY=0.096;exitDx=0;exitDy=0;exitPerimeter=0;entryX=1;entryY=0.091;entryDx=0;entryDy=0;entryPerimeter=0;" edge="1" parent="1" source="l5qrBLK7dBV3Jlsl8NIk-1" target="l5qrBLK7dBV3Jlsl8NIk-1">
          <mxGeometry width="100" relative="1" as="geometry">
            <mxPoint x="370" y="310" as="sourcePoint" />
            <mxPoint x="470" y="310" as="targetPoint" />
          </mxGeometry>
        </mxCell>
        <mxCell id="l5qrBLK7dBV3Jlsl8NIk-5" value="- producer : String&lt;br&gt;- studio: String&amp;nbsp; &amp;nbsp; &amp;nbsp;&amp;nbsp;" style="text;html=1;strokeColor=none;fillColor=none;align=center;verticalAlign=middle;whiteSpace=wrap;rounded=0;" vertex="1" parent="1">
          <mxGeometry x="240" y="110" width="190" height="20" as="geometry" />
        </mxCell>
        <mxCell id="l5qrBLK7dBV3Jlsl8NIk-6" value="" style="shape=link;html=1;exitX=0.007;exitY=0.096;exitDx=0;exitDy=0;exitPerimeter=0;entryX=1;entryY=0.091;entryDx=0;entryDy=0;entryPerimeter=0;" edge="1" parent="1">
          <mxGeometry width="100" relative="1" as="geometry">
            <mxPoint x="242.66000000000008" y="152.29999999999995" as="sourcePoint" />
            <mxPoint x="620" y="150" as="targetPoint" />
          </mxGeometry>
        </mxCell>
        <mxCell id="l5qrBLK7dBV3Jlsl8NIk-7" value="+ Video(String, String, String, String)&lt;br&gt;+ getProducer() : String&lt;br&gt;+ setProducer() : void&lt;br&gt;+ getStudio() : String&lt;br&gt;+ setProducer(): void" style="text;html=1;strokeColor=none;fillColor=none;align=center;verticalAlign=middle;whiteSpace=wrap;rounded=0;" vertex="1" parent="1">
          <mxGeometry x="241" y="170" width="330" height="170" as="geometry" />
        </mxCell>
      </root>
    </mxGraphModel>
  </diagram>
</mxfile>
